<svg viewBox="0 0 512 512" xmlns="http://www.w3.org/2000/svg">
<path d="m504.417969 248.5c-4.144531 0-7.5 3.355469-7.5 7.5 0 64.375-25.0625 124.894531-70.574219 170.414062-45.511719 45.519532-106.023438 70.585938-170.382812 70.585938-60.433594 0-118.230469-22.472656-162.75-63.277344-3.054688-2.796875-7.796876-2.589844-10.597657.464844-2.796875 3.050781-2.589843 7.796875.460938 10.59375 47.292969 43.347656 108.691406 67.21875 172.886719 67.21875 68.367187 0 132.644531-26.628906 180.988281-74.980469 48.34375-48.351562 74.96875-112.640625 74.96875-181.019531 0-4.144531-3.355469-7.5-7.5-7.5zm0 0"/>
<path d="m15 256c0-64.375 25.0625-124.894531 70.574219-170.414062 45.511719-45.519532 106.023437-70.585938 170.386719-70.585938 58.507812 0 114.925781 21.230469 158.851562 59.785156 43.527344 38.199219 71.867188 90.65625 79.796875 147.714844.570313 4.101562 4.371094 6.964844 8.460937 6.394531 4.105469-.570312 6.96875-4.359375 6.398438-8.460937-8.429688-60.621094-38.53125-116.351563-84.761719-156.925782-46.664062-40.953124-106.59375-63.507812-168.746093-63.507812-68.371094 0-132.648438 26.628906-180.992188 74.980469-48.34375 48.351562-74.96875 112.640625-74.96875 181.019531 0 59.339844 20.765625 117.179688 58.46875 162.863281 1.480469 1.796875 3.625 2.726563 5.789062 2.726563 1.679688 0 3.371094-.5625 4.769532-1.71875 3.195312-2.636719 3.644531-7.359375 1.007812-10.558594-35.488281-43-55.035156-97.449219-55.035156-153.3125zm0 0"/>
<path d="m365.371094 191.652344c6.738281-6.738282 6.734375-17.699219 0-24.4375l-20.640625-20.644532c-6.738281-6.738281-17.699219-6.734374-24.4375 0l-62.472657 62.480469c-.671874.671875-1.457031.773438-1.863281.773438s-1.191406-.101563-1.863281-.773438l-62.21875-62.226562c-3.332031-3.332031-7.761719-5.167969-12.472656-5.167969-4.707032 0-9.136719 1.835938-12.46875 5.167969l-20.136719 20.140625c-6.875 6.875-6.875 18.0625 0 24.9375l15.175781 15.179687c2.929688 2.929688 7.675782 2.929688 10.605469 0 2.929687-2.929687 2.929687-7.679687 0-10.605469l-15.175781-15.179687c-1.027344-1.027344-1.027344-2.699219 0-3.726563l20.140625-20.140624c.671875-.671876 1.453125-.773438 1.859375-.773438.410156 0 1.191406.101562 1.863281.773438l62.21875 62.226562c3.332031 3.332031 7.761719 5.167969 12.472656 5.167969 4.710938 0 9.140625-1.835938 12.472657-5.167969l62.472656-62.480469c.882812-.886719 2.332031-.890625 3.21875 0l20.644531 20.644531c.886719.890626.886719 2.335938 0 3.226563l-62.472656 62.480469c-6.878907 6.875-6.878907 18.066406 0 24.941406l62.21875 62.230469c1.027343 1.027343 1.027343 2.699219 0 3.730469l-20.140625 20.140624c-.671875.671876-1.453125.769532-1.859375.769532s-1.191407-.097656-1.863281-.769532l-62.21875-62.230468c-3.332032-3.332032-7.761719-5.164063-12.472657-5.164063-4.710937 0-9.140625 1.832031-12.472656 5.164063l-62.472656 62.484375c-.550781.550781-1.179688.664062-1.609375.664062-.425782 0-1.054688-.113281-1.605469-.667969l-20.644531-20.644531c-.890625-.890625-.890625-2.332031 0-3.222656l62.472656-62.480469c6.875-6.878906 6.875-18.066406 0-24.945312l-22.160156-22.164063c-2.929688-2.929687-7.679688-2.929687-10.605469 0-2.929687 2.929688-2.929687 7.675781 0 10.605469l22.15625 22.164062c1.03125 1.027344 1.03125 2.703126 0 3.730469l-62.46875 62.484375c-6.738281 6.734375-6.738281 17.695313 0 24.433594l20.640625 20.644531c3.261719 3.265625 7.601562 5.0625 12.21875 5.0625 4.613281 0 8.953125-1.796875 12.214844-5.0625l62.476562-62.480469c.667969-.671874 1.453125-.769531 1.863282-.769531.40625 0 1.191406.097657 1.863281.769531l62.21875 62.230469c3.328125 3.332031 7.757812 5.164063 12.46875 5.164063 4.710937 0 9.140625-1.832032 12.46875-5.164063l20.140625-20.140625c6.875-6.875 6.875-18.0625 0-24.9375l-62.21875-62.234375c-1.03125-1.027343-1.03125-2.703125 0-3.730469zm0 0"/>
</svg>