<svg xmlns="http://www.w3.org/2000/svg" height="512" viewBox="0 0 512 512" width="512">
<g>
<path d="m437.02 74.98c-48.353-48.351-112.64-74.98-181.02-74.98s-132.667 26.629-181.02 74.98c-48.351 48.353-74.98 112.64-74.98 181.02s26.629 132.667 74.98 181.02c48.353 48.351 112.64 74.98 181.02 74.98s132.667-26.629 181.02-74.98c48.351-48.353 74.98-112.64 74.98-181.02s-26.629-132.667-74.98-181.02zm-10.607 351.433c-45.519 45.519-106.039 70.587-170.413 70.587s-124.894-25.068-170.413-70.587-70.587-106.039-70.587-170.413 25.068-124.894 70.587-170.413 106.039-70.587 170.413-70.587 124.894 25.068 170.413 70.587 70.587 106.039 70.587 170.413-25.068 124.894-70.587 170.413z" />
<path d="m256 200.403c-4.142 0-7.5 3.358-7.5 7.5v25.797c-1.021.344-2.01.755-2.963 1.23l-84.435-84.435c-2.929-2.929-7.678-2.929-10.606 0-2.929 2.929-2.929 7.678 0 10.606l84.435 84.435c-1.573 3.154-2.463 6.706-2.463 10.463 0 10.354 6.724 19.16 16.032 22.3v119.407c0 4.142 3.358 7.5 7.5 7.5s7.5-3.358 7.5-7.5v-119.406c1.021-.344 2.01-.755 2.963-1.23l18.803 18.803c1.464 1.464 3.384 2.197 5.303 2.197s3.839-.732 5.303-2.197c2.929-2.929 2.929-7.678 0-10.606l-18.803-18.803c1.573-3.154 2.463-6.706 2.463-10.463 0-10.354-6.724-19.16-16.032-22.3v-25.797c0-4.143-3.358-7.501-7.5-7.501zm0 64.129c-4.705 0-8.532-3.828-8.532-8.532s3.828-8.532 8.532-8.532 8.532 3.828 8.532 8.532-3.827 8.532-8.532 8.532z" />
<path d="m392.343 414.24c-8.055 6.955-16.573 13.225-25.464 18.808l-12.198-21.128c-2.071-3.587-6.658-4.817-10.245-2.745-3.587 2.071-4.816 6.658-2.745 10.245l12.206 21.142c-27.751 14.751-58.583 23.077-90.397 24.209v-24.399c0-4.142-3.358-7.5-7.5-7.5s-7.5 3.358-7.5 7.5v24.398c-31.962-1.128-62.771-9.48-90.422-24.163l12.232-21.186c2.071-3.587.842-8.174-2.745-10.245-3.587-2.072-8.174-.842-10.245 2.745l-12.226 21.176c-13.218-8.293-25.583-18.106-36.833-29.356s-21.063-23.615-29.356-36.833l21.176-12.226c3.587-2.071 4.816-6.658 2.745-10.245-2.071-3.588-6.658-4.817-10.245-2.745l-21.186 12.232c-14.683-27.652-23.035-58.46-24.163-90.422h24.398c4.142 0 7.5-3.358 7.5-7.5s-3.358-7.5-7.5-7.5h-24.4c1.133-31.815 9.458-62.646 24.208-90.396l21.142 12.204c1.181.682 2.471 1.006 3.743 1.006 2.592 0 5.113-1.346 6.502-3.751 2.071-3.587.842-8.174-2.745-10.245l-21.128-12.198c5.583-8.89 11.853-17.409 18.807-25.464 2.707-3.135 2.36-7.871-.775-10.578-3.136-2.707-7.872-2.359-10.578.775-36.87 42.704-56.111 97.368-54.177 153.923 1.944 56.85 25.179 110.323 65.425 150.568 40.246 40.246 93.719 63.481 150.568 65.425 2.596.088 5.178.133 7.765.133 53.773-.002 105.415-19.132 146.159-54.31 3.135-2.707 3.482-7.443.775-10.578-2.707-3.136-7.443-3.483-10.578-.776z" />
<path d="m479.771 248.222c-1.944-56.85-25.179-110.323-65.425-150.568-40.246-40.246-93.719-63.481-150.568-65.425-56.553-1.93-111.22 17.307-153.923 54.177-3.135 2.707-3.482 7.443-.775 10.578s7.443 3.482 10.578.775c8.055-6.955 16.574-13.224 25.465-18.806l12.197 21.126c1.389 2.406 3.91 3.751 6.502 3.751 1.272 0 2.562-.324 3.743-1.006 3.587-2.071 4.816-6.658 2.745-10.245l-12.205-21.139c27.752-14.748 58.584-23.07 90.395-24.208v24.396c0 4.142 3.358 7.5 7.5 7.5s7.5-3.358 7.5-7.5v-24.397c31.962 1.128 62.77 9.48 90.422 24.163l-12.232 21.186c-2.071 3.587-.842 8.174 2.745 10.245 1.181.682 2.471 1.006 3.743 1.006 2.592 0 5.113-1.346 6.502-3.751l12.226-21.176c13.218 8.293 25.583 18.106 36.833 29.356s21.063 23.615 29.356 36.833l-21.176 12.226c-3.587 2.071-4.816 6.658-2.745 10.245 1.389 2.406 3.91 3.751 6.502 3.751 1.272 0 2.562-.324 3.743-1.006l21.186-12.232c14.683 27.652 23.035 58.46 24.163 90.422h-24.398c-4.142 0-7.5 3.358-7.5 7.5s3.358 7.5 7.5 7.5h24.398c-1.133 31.815-9.458 62.646-24.208 90.396l-21.14-12.205c-3.587-2.072-8.174-.842-10.245 2.745s-.842 8.174 2.745 10.245l21.128 12.198c-5.583 8.89-11.853 17.409-18.807 25.464-2.707 3.135-2.36 7.871.775 10.578 1.417 1.224 3.162 1.823 4.898 1.823 2.104 0 4.197-.881 5.68-2.599 36.87-42.702 56.111-97.367 54.177-153.922z" />
</g>
</svg>