<svg width="44px" height="44px" viewBox="0 0 44 44" version="1.1" xmlns="http://www.w3.org/2000/svg" xmlns:xlink="http://www.w3.org/1999/xlink">
    <g id="Artboard-2" stroke="none" stroke-width="1" fill="none" fill-rule="evenodd">
        <g id="Group-19">
            <g id="circle-logo" fill-rule="nonzero">
                <circle id="Oval" fill="#EA4A35" cx="22" cy="22" r="22"></circle>
                <path d="M12.2098765,22.7957622 C12.1079757,22.4779282 12.0060748,22.3719835 11.7003723,22.3719835 C10.7967877,22.3621514 9.8947687,22.291373 9,22.1600942 C9.09969686,22.7338747 9.23586315,23.300154 9.40760337,23.8552089 C10.0699588,26.3978811 11.7003723,27.9870512 14.1459926,28.9935256 C15.3688027,29.4702766 19.8524398,30 20.1581423,30 C18.8843818,29.364332 17.5596708,28.7286639 16.2859102,27.9340789 C14.3267704,26.8495691 12.8610303,25.0018325 12.2098765,22.7957622 Z M18.1405056,19.458505 C17.5291005,19.1936433 16.9686459,18.981754 16.3572409,18.7168923 C14.6249265,17.9752796 14.6758769,18.1871689 13.1983147,17.1277222 C12.8254686,18.1993605 12.6190843,19.3258762 12.5869097,20.4649794 C12.56439,22.6405041 13.52677,24.7005033 15.1853812,26.0270747 C16.9686459,27.5632725 18.4971585,28.1989406 20.6370762,28.9405533 C20.9427787,29.046498 21.1465804,29.1524426 21.6051343,29.3113596 C21.6051343,28.4638023 21.7070351,24.4379046 21.4013326,23.1665686 C21.0446796,21.4184815 19.8728199,20.2001177 18.1405056,19.458505 Z M25.2735646,18.7062978 C24.2188908,14.1877575 22.0127376,12 22.0127376,12 C22.0127376,12 19.7760141,14.267216 18.7417205,18.7062978 C20.4051267,19.3124658 21.6446472,20.7758136 22.0127376,22.5679812 C22.4916716,19.5644496 25.2735646,18.7062978 25.2735646,18.7062978 Z M31.7901235,22.7957622 C31.1389697,25.0018325 29.6732296,26.8495691 27.7140898,27.9340789 C26.4403292,28.7286639 25.1156183,29.364332 23.8418577,30 C24.1475603,30 28.6311973,29.4702766 29.8540074,28.9935256 C32.2996277,27.9870512 33.9300412,26.3978811 34.5923966,23.8552089 C34.7641369,23.300154 34.9003031,22.7338747 35,22.1600942 C34.1052313,22.291373 33.2032123,22.3621514 32.2996277,22.3719835 C31.9939252,22.3719835 31.8920243,22.4779282 31.7901235,22.7957622 Z M25.8798746,19.458505 C24.1475603,20.2001177 22.9757006,21.4184815 22.6190476,23.1665686 C22.3133451,24.4379046 22.4152459,28.4638023 22.4152459,29.3113596 C22.8737997,29.1524426 23.0776014,29.046498 23.3833039,28.9405533 C25.5232217,28.1989406 27.0517343,27.5632725 28.834999,26.0270747 C30.4936102,24.7005033 31.4559902,22.6405041 31.4334705,20.4649794 C31.4012959,19.3258762 31.1949116,18.1993605 30.8220655,17.1277222 C29.3445032,18.1871689 29.3954536,17.9752796 27.6631393,18.7168923 C27.0517343,18.981754 26.4912797,19.1936433 25.8798746,19.458505 Z" id="samurai-copy" fill="#FFFFFF"></path>
            </g>
        </g>
    </g>
</svg>