<?xml version="1.0" encoding="UTF-8"?>
<svg width="175px" height="44px" viewBox="0 0 175 44" version="1.1" xmlns="http://www.w3.org/2000/svg" xmlns:xlink="http://www.w3.org/1999/xlink">
    <!-- Generator: Sketch 51.2 (57519) - http://www.bohemiancoding.com/sketch -->
    <title>Artboard 2</title>
    <desc>Created with Sketch.</desc>
    <defs></defs>
    <g id="Artboard-2" stroke="none" stroke-width="1" fill="none" fill-rule="evenodd">
        <g id="Group-19">
            <g id="Group-18" transform="translate(59.000000, 4.000000)" fill="#404040">
                <path d="M17,12.2278192 L17,3.77126918 L17,3.77126918 C17,1.68845472 18.6884547,7.23250588e-14 20.7712692,7.1942452e-14 L21.3929493,8.25171898e-14 L29.8882201,0 L29.8882201,3.77126918 L21.3929493,3.77126918 L21.3929493,6.19246862 L29.083405,6.19246862 L29.083405,9.69595537 L21.3929493,9.69595537 L21.3929493,12.2287308 L30,12.2287308 L30,16 L21.2786962,16 L20.7721808,16 C18.6888629,16 17,14.3111371 17,12.2278192 Z" id="Path"></path>
                <polygon id="Path" points="50 16 50 0 54.3626374 0 54.3626374 12.1171548 62 12.1171548 62 16"></polygon>
                <polygon id="Path" points="61 3.89400279 61 0 75 0 75 3.89400279 70.2034976 3.89400279 70.2034976 16 65.7853736 16 65.7853736 3.89400279"></polygon>
                <path d="M77,11.7409962 L77,0 L81.2590038,0 L81.2590038,5.9916318 L86.7302682,5.9916318 L86.7302682,0 L87,0 C89.209139,-4.05812251e-16 91,1.790861 91,4 L91,16 L86.7302682,16 L86.7302682,9.91910739 L81.2590038,9.91910739 L81.2590038,16 L81.2590038,16 C78.906821,16 77,14.093179 77,11.7409962 Z" id="Path"></path>
                <path d="M-8.8817842e-16,16 L-7.02757905e-17,10.6608991 L8.8817842e-16,4.25900383 C6.00119098e-16,1.90682097 1.90682097,4.32088983e-16 4.25900383,0 L4.25900383,5.9916318 L9.7302682,5.9916318 L9.7302682,0 L14,0 L14,11.7302682 C14,14.088376 12.088376,16 9.7302682,16 L9.7302682,9.91910739 L4.25900383,9.91910739 L4.25900383,16 L-8.8817842e-16,16 Z" id="Combined-Shape"></path>
                <path d="M31,15.7526798 L36.7058666,1.87778171 C37.1730856,0.741650008 38.2799932,2.25662561e-16 39.5084429,0 C40.7367632,-2.25638775e-16 41.8434223,0.74194529 42.3099378,1.87822606 L48.0062835,15.7526798 L43.4896521,15.7526798 L42.3763979,12.9599609 L36.513259,12.9599609 L35.431812,15.7526798 L31,15.7526798 Z M37.9358986,9.74178882 L41.3498782,9.74178882 L39.6534908,5.29089314 L37.9358986,9.74178882 Z" id="Combined-Shape"></path>
            </g>
            <g id="Group-16" transform="translate(70.000000, 23.000000)">
                <path d="M99.2999878,16.7108265 L99.2999878,7.30004883 L103.763579,7.30004883 L103.763579,10.0851345 L103.763579,12.2472351 C103.763579,14.7124086 101.765161,16.7108265 99.2999878,16.7108265 Z" id="Combined-Shape" fill="#404040"></path>
                <path d="M67,16.6435892 L67,1 L74.1287148,1 C76.4572333,1 78.1942969,1.55999271 79.3399578,2.67999494 C80.2847561,3.60363313 80.7571481,4.83998068 80.7571481,6.38907467 C80.7571481,7.5454406 80.4670176,8.527246 79.8867478,9.33452033 C79.306478,10.1417947 78.4993199,10.7599684 77.4652494,11.1890602 L81.2816201,16.6435892 L76.1596489,16.6435892 L72.9347041,11.909058 L71.4205322,11.909058 L71.4205322,16.6435892 L67,16.6435892 Z" id="Combined-Shape" fill="#404040"></path>
                <path d="M50.9611836,9.78179171 L50.9611836,1 L55.458252,1 L55.458252,9.69451925 C55.458252,10.7927032 55.7186255,11.6217834 56.2393805,12.1817845 C56.7601354,12.7417856 57.0205586,13.0217819 57.9430388,13.0217819 C58.8655189,13.0217819 59.2681849,12.7526945 59.7889399,12.2145117 C60.3096948,11.6763288 60.5700684,10.8727029 60.5700684,9.80360983 L60.5700684,1 L65.0782957,1 L65.0782957,9.67270113 C65.0782957,10.91634 64.9034735,12.0035985 64.5538237,12.9345095 C64.204174,13.8654204 63.6983054,14.6217742 63.0362026,15.2035936 C62.3740999,15.7854129 61.5873998,16.2199527 60.6760787,16.507226 C59.7647575,16.7944993 59.0515031,16.9381338 57.8984028,16.9381338 C55.5550056,16.9381338 54.1972938,16.3435961 52.9028458,15.1545028 C51.6083978,13.9654095 50.9611836,12.1745237 50.9611836,9.78179171 Z" id="Path" fill="#404040"></path>
                <path d="M32,16.6435892 L32,2 C32,1.44771525 32.4477153,1 33,1 L36.686771,1 L40.5031417,7.05452721 L44.3195124,1 L48.0062835,1 C48.5585682,1 49.0062835,1.44771525 49.0062835,2 L49.0062835,16.6435892 L44.5873279,16.6435892 L44.5873279,7.66543446 L40.5031417,13.785416 L40.5031417,13.785416 C40.4473497,13.785416 40.3952286,13.757606 40.364164,13.7112622 L36.3408427,7.70907069 L36.3408427,16.6435892 L32,16.6435892 Z" id="Path" fill="#404040"></path>
                <path d="M0,14.5817772 L2.47729326,11.7017859 C4.07675487,12.9526975 5.80637926,13.5781439 7.66621834,13.5781439 C8.25392749,13.5781439 8.70400179,13.4817815 9.01645476,13.2890539 C9.32890772,13.0963262 9.48513186,12.818148 9.48513186,12.4545109 C9.48513186,12.1199648 9.30101055,11.8472411 8.93276242,11.6363316 C8.56451428,11.4254221 7.8522066,11.1999705 6.795818,10.95997 C6.25274499,10.8363334 5.78221276,10.7217894 5.3842072,10.6163347 C4.98620164,10.5108799 4.5640245,10.3781544 4.11766312,10.218154 C3.67130175,10.0581537 3.29190027,9.89088317 2.9794473,9.71633736 C2.66699434,9.54179156 2.3619853,9.33088522 2.06441105,9.083612 C1.7668368,8.83633878 1.52878097,8.56906953 1.35023642,8.28179623 C1.17169187,7.99452294 1.02848641,7.65816368 0.920615739,7.27270837 C0.812745073,6.88725306 0.758810549,6.46544036 0.758810549,6.00725763 C0.758810549,4.53089107 1.31861371,3.32727037 2.43823684,2.39635943 C3.55785996,1.46544849 5.0624472,1 6.9520437,1 C9.57813648,1 11.7727137,1.6909001 13.5358411,3.07272103 L11.3152044,6.13816633 C9.81989374,5.11270975 8.32832518,4.59998915 6.84045392,4.59998915 C6.31969898,4.59998915 5.92169938,4.69635153 5.6464432,4.88907919 C5.37118702,5.08180684 5.23356099,5.33453083 5.23356099,5.64725872 C5.23356099,6.01089581 5.4176823,6.29271032 5.78593043,6.49271072 C6.15417857,6.69271111 6.89252361,6.91634457 8.0009877,7.16361779 C8.98298273,7.3745273 9.81617814,7.60543338 10.5005989,7.85634297 C11.1850197,8.10725256 11.8006172,8.42179392 12.3474099,8.79997649 C12.8942026,9.17815906 13.3015012,9.63815307 13.569318,10.1799723 C13.8371349,10.7217916 13.9710413,11.3563288 13.9710413,12.083603 C13.9710413,13.6617879 13.3833409,14.9054081 12.2079227,15.8145008 C11.0325044,16.7235935 9.46282372,17.1781331 7.49883366,17.1781331 C6.05559854,17.1781331 4.68677751,16.9581359 3.39232951,16.518135 C2.09788152,16.0781342 0.967116319,15.432688 0,14.5817772 Z" id="Path" fill="#404040"></path>
                <path d="M81.3927183,16.7526798 L87.0985849,2.87778171 C87.5658039,1.74165001 88.6727115,1 89.9011612,1 C91.1294815,1 92.2361406,1.74194529 92.7026561,2.87822606 L98.3990018,16.7526798 L93.8823704,16.7526798 L92.7691162,13.9599609 L86.9059773,13.9599609 L85.8245303,16.7526798 L81.3927183,16.7526798 Z M88.3286169,10.7417888 L91.7425965,10.7417888 L90.0462091,6.29089314 L88.3286169,10.7417888 Z" id="Combined-Shape" fill="#404040"></path>
                <path d="M14,16.7526798 L19.7058666,2.87778171 C20.1730856,1.74165001 21.2799932,1 22.5084429,1 C23.7367632,1 24.8434223,1.74194529 25.3099378,2.87822606 L31.0062835,16.7526798 L26.4896521,16.7526798 L25.3763979,13.9599609 L19.513259,13.9599609 L18.431812,16.7526798 L14,16.7526798 Z M20.9358986,10.7417888 L24.3498782,10.7417888 L22.6534908,6.29089314 L20.9358986,10.7417888 Z" id="Combined-Shape" fill="#404040"></path>
                <path d="M101.549988,0.300048828 L101.549988,0.300048828 C102.792628,0.300048828 103.799988,1.30740814 103.799988,2.55004883 L103.799988,4.80004883 L99.2999878,4.80004883 L99.2999878,2.55004883 C99.2999878,1.30740814 100.307347,0.300048828 101.549988,0.300048828 Z" id="Rectangle-5" fill="#EA4A35"></path>
                <path d="M71.2999878,8.16352736 L73.4110179,8.16352736 C74.1623929,8.16352736 74.7463736,7.99443865 75.1629776,7.65625617 C75.5795815,7.31807368 75.7878804,6.85080703 75.7878804,6.25444221 C75.7878804,5.65080465 75.5777217,5.19081063 75.1573981,4.87444637 C74.7370744,4.5580821 74.1475143,4.39990234 73.3887,4.39990234 L71.2999878,4.39990234 L71.2999878,8.16352736 Z" id="Path" fill="#FFFFFF"></path>
            </g>
            <g id="circle-logo" fill-rule="nonzero">
                <circle id="Oval" fill="#EA4A35" cx="22" cy="22" r="22"></circle>
                <path d="M12.2098765,22.7957622 C12.1079757,22.4779282 12.0060748,22.3719835 11.7003723,22.3719835 C10.7967877,22.3621514 9.8947687,22.291373 9,22.1600942 C9.09969686,22.7338747 9.23586315,23.300154 9.40760337,23.8552089 C10.0699588,26.3978811 11.7003723,27.9870512 14.1459926,28.9935256 C15.3688027,29.4702766 19.8524398,30 20.1581423,30 C18.8843818,29.364332 17.5596708,28.7286639 16.2859102,27.9340789 C14.3267704,26.8495691 12.8610303,25.0018325 12.2098765,22.7957622 Z M18.1405056,19.458505 C17.5291005,19.1936433 16.9686459,18.981754 16.3572409,18.7168923 C14.6249265,17.9752796 14.6758769,18.1871689 13.1983147,17.1277222 C12.8254686,18.1993605 12.6190843,19.3258762 12.5869097,20.4649794 C12.56439,22.6405041 13.52677,24.7005033 15.1853812,26.0270747 C16.9686459,27.5632725 18.4971585,28.1989406 20.6370762,28.9405533 C20.9427787,29.046498 21.1465804,29.1524426 21.6051343,29.3113596 C21.6051343,28.4638023 21.7070351,24.4379046 21.4013326,23.1665686 C21.0446796,21.4184815 19.8728199,20.2001177 18.1405056,19.458505 Z M25.2735646,18.7062978 C24.2188908,14.1877575 22.0127376,12 22.0127376,12 C22.0127376,12 19.7760141,14.267216 18.7417205,18.7062978 C20.4051267,19.3124658 21.6446472,20.7758136 22.0127376,22.5679812 C22.4916716,19.5644496 25.2735646,18.7062978 25.2735646,18.7062978 Z M31.7901235,22.7957622 C31.1389697,25.0018325 29.6732296,26.8495691 27.7140898,27.9340789 C26.4403292,28.7286639 25.1156183,29.364332 23.8418577,30 C24.1475603,30 28.6311973,29.4702766 29.8540074,28.9935256 C32.2996277,27.9870512 33.9300412,26.3978811 34.5923966,23.8552089 C34.7641369,23.300154 34.9003031,22.7338747 35,22.1600942 C34.1052313,22.291373 33.2032123,22.3621514 32.2996277,22.3719835 C31.9939252,22.3719835 31.8920243,22.4779282 31.7901235,22.7957622 Z M25.8798746,19.458505 C24.1475603,20.2001177 22.9757006,21.4184815 22.6190476,23.1665686 C22.3133451,24.4379046 22.4152459,28.4638023 22.4152459,29.3113596 C22.8737997,29.1524426 23.0776014,29.046498 23.3833039,28.9405533 C25.5232217,28.1989406 27.0517343,27.5632725 28.834999,26.0270747 C30.4936102,24.7005033 31.4559902,22.6405041 31.4334705,20.4649794 C31.4012959,19.3258762 31.1949116,18.1993605 30.8220655,17.1277222 C29.3445032,18.1871689 29.3954536,17.9752796 27.6631393,18.7168923 C27.0517343,18.981754 26.4912797,19.1936433 25.8798746,19.458505 Z" id="samurai-copy" fill="#FFFFFF"></path>
            </g>
        </g>
    </g>
</svg>