<svg height="512" viewBox="0 0 512 512" width="512" xmlns="http://www.w3.org/2000/svg">
<g>
<path d="m247.986 408.822h-216.438c-9.125 0-16.548-7.423-16.548-16.548v-273.064h385.807v120.756c0 4.143 3.358 7.5 7.5 7.5s7.5-3.357 7.5-7.5v-168.337c0-17.396-14.152-31.548-31.548-31.548h-8.533v-8.532c0-12.976-10.557-23.532-23.532-23.532s-23.532 10.556-23.532 23.532v8.532h-216.953c-4.142 0-7.5 3.358-7.5 7.5s3.358 7.5 7.5 7.5h216.952v8.533c0 12.976 10.557 23.532 23.532 23.532s23.532-10.557 23.532-23.532v-8.533h8.533c9.125 0 16.548 7.423 16.548 16.548v32.581h-385.806v-32.581c0-9.125 7.423-16.548 16.548-16.548h8.532v8.533c0 12.976 10.557 23.532 23.532 23.532s23.532-10.557 23.532-23.532v-32.066c0-12.976-10.557-23.532-23.532-23.532s-23.531 10.556-23.531 23.532v8.532h-8.532c-17.397.001-31.549 14.153-31.549 31.549v320.646c0 17.396 14.152 31.548 31.548 31.548h216.438c4.142 0 7.5-3.357 7.5-7.5 0-4.142-3.358-7.501-7.5-7.501zm104.207-336.676c-4.705 0-8.532-3.828-8.532-8.532v-32.066c0-4.705 3.828-8.532 8.532-8.532s8.532 3.828 8.532 8.532v32.065c.001 4.704-3.827 8.533-8.532 8.533zm-297.112-40.598c0-4.705 3.828-8.532 8.532-8.532s8.532 3.828 8.532 8.532v32.065c0 4.704-3.828 8.532-8.532 8.532s-8.532-3.828-8.532-8.532z" />
<path d="m392.274 264.532c-66.017 0-119.726 53.709-119.726 119.726s53.709 119.726 119.726 119.726 119.726-53.709 119.726-119.726-53.708-119.726-119.726-119.726zm0 224.452c-57.746 0-104.726-46.98-104.726-104.726s46.98-104.726 104.726-104.726 104.726 46.98 104.726 104.726-46.979 104.726-104.726 104.726z" />
<path d="m443.084 354.906-66.478 66.478c-.037.037-.151.15-.364.15-.214 0-.328-.113-.365-.151l-34.413-34.413c-2.929-2.929-7.678-2.929-10.606 0-2.929 2.929-2.929 7.678 0 10.606l34.412 34.413c2.931 2.931 6.827 4.544 10.972 4.544s8.041-1.614 10.971-4.544l66.477-66.477c2.929-2.929 2.929-7.677 0-10.606-2.928-2.928-7.677-2.928-10.606 0z" />
<path d="m87.661 152.307c-17.396 0-31.548 14.152-31.548 31.548s14.152 31.549 31.548 31.549 31.548-14.152 31.548-31.549c0-17.396-14.152-31.548-31.548-31.548zm0 48.096c-9.125 0-16.548-7.424-16.548-16.549s7.423-16.548 16.548-16.548 16.548 7.423 16.548 16.548-7.423 16.549-16.548 16.549z" />
<path d="m359.693 183.854c0-4.142-3.358-7.5-7.5-7.5h-200.402c-4.142 0-7.5 3.358-7.5 7.5 0 4.143 3.358 7.5 7.5 7.5h200.403c4.141 0 7.499-3.357 7.499-7.5z" />
<path d="m87.661 232.468c-17.396 0-31.548 14.152-31.548 31.548s14.152 31.548 31.548 31.548 31.548-14.152 31.548-31.548-14.152-31.548-31.548-31.548zm0 48.096c-9.125 0-16.548-7.424-16.548-16.548s7.423-16.548 16.548-16.548 16.548 7.424 16.548 16.548-7.423 16.548-16.548 16.548z" />
<path d="m303.581 264.016c0-4.142-3.358-7.5-7.5-7.5h-144.29c-4.142 0-7.5 3.358-7.5 7.5s3.358 7.5 7.5 7.5h144.29c4.142 0 7.5-3.358 7.5-7.5z" />
<path d="m87.661 312.629c-17.396 0-31.548 14.153-31.548 31.549s14.152 31.548 31.548 31.548 31.548-14.152 31.548-31.548-14.152-31.549-31.548-31.549zm0 48.097c-9.125 0-16.548-7.423-16.548-16.548s7.423-16.549 16.548-16.549 16.548 7.424 16.548 16.549c0 9.124-7.423 16.548-16.548 16.548z" />
<path d="m151.791 336.678c-4.142 0-7.5 3.357-7.5 7.5 0 4.142 3.358 7.5 7.5 7.5h96.193c4.142 0 7.5-3.358 7.5-7.5 0-4.143-3.358-7.5-7.5-7.5z" />
</g>
</svg>